# xmcd
# 
# Track frame offsets:
#	150
#	16401
#	33733
#	46323
#	64015
#	77720
#	102304
#	119450
#	137368
#	153187
#	163758
#	179495
#	191465
#	209203
#	227447
#	238559
#
# Disc length: 3366 seconds
#
# Revision: 1
# Processed by: cddbd v1.4PL0 Copyright (c) Steve Scherf et al.
# Submitted via: Audio-CD-Archiv 2.10.441
#
DISCID=d50d2410
DTITLE=Various Artist - Könige der Landstrasse CD 3 - Sehnsucht nach den Staaten
DYEAR=1900
DGENRE=country
TTITLE0=Western Union - Nach Süden
TTITLE1=Evelyne and Albert - Autobahn nach irgendwo
TTITLE2=Andre´ Lamberz and Hill´s Angels - Sechs Tage jede Woche
TTITLE3=Sammy´s Saloon - Sehnsucht nach den Staaten
TTITLE4=Tennessee - Ich fahr´n Truck
TTITLE5=Sammy´s Saloon - Wenn ich nur ein Trucker wär´
TTITLE6=Andre´ Lamberz and Hill´s Angels - Sie ist ein ehrbares Mädchen
TTITLE7=Western Starlight - German Trucker
TTITLE8=Tennessee - Ein Kerl wie´n Baum
TTITLE9=Little Ma´ Cissy - Truckerfeste
TTITLE10=Andre´ Lamberz and Hill´s Angels - Auf der Autobahn
TTITLE11=Howdy - Ich träum von Amerika
TTITLE12=Timmel Truck - König der Autobahn
TTITLE13=Sammy´s Saloon - Della und der Dealer
TTITLE14=Tennessee - Wann bleibt mal Zeit für uns
TTITLE15=Andre´ Lamberz and Hill´s Angels - Der Weg zurück nach Haus
EXTD=
EXTT0=
EXTT1=
EXTT2=
EXTT3=
EXTT4=
EXTT5=
EXTT6=
EXTT7=
EXTT8=
EXTT9=
EXTT10=
EXTT11=
EXTT12=
EXTT13=
EXTT14=
EXTT15=
PLAYORDER=
